# xmcd CD database file
#
# Track frame offsets:
#	150
#	18316
#	32097
#	41814
#	64151
#	78613
#	99538
#	116667
#	138455
#	176979
#
# Disc length: 2408 seconds
#
# Revision: 0
# Processed by: cddbd v1.5.2PL0 Copyright (c) Steve Scherf et al.
# Submitted via: CDex 1.70beta2
#
DISCID=8c09660a
DTITLE=Electric Flag - A Long Time Comin' (from vinyl)
DYEAR=1900
DGENRE=Blues
TTITLE0=Killing Floor
TTITLE1=Groovin' is Easy
TTITLE2=Over-Lovin' You
TTITLE3=She Should Have Just
TTITLE4=Wine
TTITLE5=Texas
TTITLE6=Sittin' in Circles
TTITLE7=You Don't Realize
TTITLE8=Another Country
TTITLE9=Easy Rider
EXTD=
EXTT0=
EXTT1=
EXTT2=
EXTT3=
EXTT4=
EXTT5=
EXTT6=
EXTT7=
EXTT8=
EXTT9=
PLAYORDER=
